<svg xmlns="http://www.w3.org/2000/svg" xmlns:xlink="http://www.w3.org/1999/xlink" width="2000" zoomAndPan="magnify" viewBox="0 0 1500 1499.999933" height="2000" preserveAspectRatio="xMidYMid meet" version="1.0"><defs><clipPath id="f0427aae3a"><path d="M 174.421875 245.648438 L 1325.671875 245.648438 L 1325.671875 1254.398438 L 174.421875 1254.398438 Z M 174.421875 245.648438 " clip-rule="nonzero"/></clipPath><clipPath id="5344ae3963"><path d="M 680 1035.96875 L 827 1035.96875 L 827 1254.21875 L 680 1254.21875 Z M 680 1035.96875 " clip-rule="nonzero"/></clipPath></defs><rect x="-150" width="1800" fill="#ffffff" y="-149.999993" height="1799.99992" fill-opacity="1"/><rect x="-150" width="1800" fill="#ffffff" y="-149.999993" height="1799.99992" fill-opacity="1"/><g clip-path="url(#f0427aae3a)"><path fill="#000000" d="M 206.457031 639.195312 C 206.273438 638.695312 205.972656 638.277344 205.554688 637.945312 C 205.136719 637.617188 204.664062 637.417969 204.132812 637.355469 C 203.605469 637.289062 203.097656 637.371094 202.613281 637.589844 C 202.128906 637.8125 201.738281 638.144531 201.441406 638.585938 C 191.542969 653.382812 186.195312 669.929688 185.402344 688.222656 C 184.472656 709.574219 187.84375 729.800781 195.511719 748.90625 C 217.023438 802.597656 260.679688 823.601562 315.761719 828.566406 C 316.070312 828.59375 316.371094 828.652344 316.664062 828.742188 C 316.960938 828.832031 317.242188 828.949219 317.511719 829.09375 C 317.785156 829.238281 318.039062 829.410156 318.273438 829.605469 C 318.511719 829.800781 318.726562 830.019531 318.917969 830.257812 C 319.113281 830.496094 319.277344 830.75 319.417969 831.023438 C 319.558594 831.292969 319.671875 831.578125 319.757812 831.871094 C 319.839844 832.167969 319.894531 832.46875 319.917969 832.773438 C 319.941406 833.078125 319.933594 833.382812 319.894531 833.683594 L 319.816406 834.089844 C 319.746094 834.675781 319.566406 835.230469 319.28125 835.75 C 319 836.269531 318.632812 836.71875 318.175781 837.09375 C 317.722656 837.472656 317.214844 837.757812 316.65625 837.941406 C 316.09375 838.128906 315.519531 838.203125 314.925781 838.171875 C 290.550781 836.851562 268.152344 831.09375 247.730469 820.890625 C 227.054688 810.578125 211.652344 797.527344 199.386719 778.121094 C 171.339844 733.828125 162.445312 668.890625 198.882812 626.246094 C 199.5625 625.445312 200.015625 624.53125 200.238281 623.503906 C 200.464844 622.476562 200.433594 621.457031 200.148438 620.445312 C 171.796875 520.511719 247.453125 383.867188 355.542969 370.210938 C 356.144531 370.136719 356.699219 369.9375 357.210938 369.613281 C 357.71875 369.289062 358.136719 368.871094 358.457031 368.359375 C 368.523438 352.398438 380.410156 338.546875 394.109375 326.804688 C 435.789062 291.054688 482.816406 264.195312 535.898438 255.304688 C 585.996094 246.925781 633.65625 253.300781 678.878906 274.433594 C 679.441406 274.703125 680.042969 274.835938 680.675781 274.828125 C 681.304688 274.820312 681.90625 274.671875 682.476562 274.382812 C 708.800781 260.828125 742.425781 252.109375 770.320312 248.234375 C 807.535156 243.082031 842.558594 245.675781 875.394531 256.011719 C 915.226562 268.582031 951.207031 297.1875 977.761719 330.328125 C 980.773438 334.101562 983.335938 334.535156 988.425781 334.253906 C 1012.195312 332.9375 1032.878906 334.238281 1050.480469 338.15625 C 1098.140625 348.75 1147.191406 373.351562 1179.625 410.902344 C 1214.84375 451.644531 1232.859375 498.976562 1233.671875 552.894531 C 1233.6875 553.769531 1233.882812 554.597656 1234.265625 555.382812 C 1234.644531 556.164062 1235.175781 556.832031 1235.847656 557.378906 C 1290.019531 600.910156 1319.3125 666.304688 1324.554688 735.300781 C 1328.988281 793.753906 1311.710938 869.15625 1236.988281 868.957031 C 1218.070312 868.90625 1199.050781 864.300781 1179.929688 855.144531 C 1150.132812 840.855469 1118.308594 817.875 1099.378906 803.710938 C 1036.695312 756.785156 983.03125 715.714844 920.777344 683.992188 C 877.167969 661.769531 832.703125 647.785156 785.953125 642.234375 C 785.539062 642.1875 785.132812 642.210938 784.730469 642.3125 C 784.324219 642.414062 783.953125 642.585938 783.613281 642.824219 C 783.273438 643.0625 782.984375 643.351562 782.75 643.695312 C 782.515625 644.039062 782.351562 644.414062 782.253906 644.820312 C 779.238281 657.386719 776.171875 670.664062 774.171875 684.269531 C 768.066406 726.128906 761.148438 764.539062 729.957031 794.160156 C 680.09375 841.566406 577.449219 866.042969 533.238281 798.746094 C 508.660156 761.320312 521.175781 723.542969 554.949219 696.683594 C 616.671875 647.582031 694.941406 625.890625 773.386719 631.566406 C 773.859375 631.601562 774.324219 631.5625 774.785156 631.4375 C 775.242188 631.316406 775.667969 631.121094 776.066406 630.855469 C 776.460938 630.589844 776.800781 630.265625 777.089844 629.882812 C 777.378906 629.503906 777.59375 629.082031 777.746094 628.628906 C 784.046875 609.488281 793.082031 591.230469 804.855469 573.847656 C 804.980469 573.667969 805.082031 573.472656 805.167969 573.269531 C 805.25 573.066406 805.3125 572.859375 805.351562 572.640625 C 805.390625 572.425781 805.40625 572.207031 805.402344 571.988281 C 805.394531 571.769531 805.367188 571.550781 805.316406 571.335938 C 805.265625 571.121094 805.191406 570.914062 805.097656 570.714844 C 805.003906 570.515625 804.890625 570.328125 804.757812 570.152344 C 804.625 569.972656 804.472656 569.8125 804.304688 569.667969 C 804.140625 569.523438 803.960938 569.394531 803.765625 569.289062 C 781.394531 556.71875 762.847656 544.914062 742.246094 528.847656 C 702.011719 497.480469 672.390625 471.6875 632.027344 458.941406 C 588.953125 445.308594 545.878906 453.519531 507.113281 477.820312 C 467.46875 502.683594 438.753906 536.484375 420.964844 579.21875 C 413.007812 598.347656 408.246094 621.988281 418.964844 640.839844 C 419.078125 641.042969 419.21875 641.230469 419.378906 641.398438 C 419.542969 641.566406 419.722656 641.714844 419.921875 641.835938 C 420.121094 641.957031 420.335938 642.050781 420.558594 642.121094 C 420.78125 642.1875 421.011719 642.226562 421.246094 642.234375 C 421.480469 642.242188 421.710938 642.222656 421.9375 642.171875 C 422.167969 642.121094 422.386719 642.042969 422.59375 641.9375 C 422.800781 641.832031 422.992188 641.699219 423.167969 641.542969 C 423.34375 641.386719 423.496094 641.210938 423.625 641.019531 C 436.480469 621.929688 451.109375 605.25 467.511719 590.976562 C 488.871094 572.378906 518.921875 559.355469 547.199219 570.527344 C 561.945312 576.355469 571.722656 589.507812 570.152344 606 C 567.972656 629.007812 549.832031 646.160156 530.070312 656.09375 C 502.402344 670.03125 467.28125 677.25 437.5625 665.898438 C 432.644531 664.023438 427.832031 659.96875 423.726562 659.183594 C 423.1875 659.074219 422.660156 659.121094 422.144531 659.316406 C 421.632812 659.515625 421.214844 659.832031 420.890625 660.273438 C 394.234375 696.253906 373.40625 739.605469 373.785156 784.050781 C 374.066406 815.46875 384.78125 847.496094 407.664062 869.5625 C 425.71875 886.980469 446.496094 898.472656 469.992188 904.046875 C 516.96875 915.171875 565.996094 909.976562 613.226562 898.703125 C 643.277344 891.507812 667.980469 884.84375 696.539062 884.4375 C 713.902344 884.199219 732.011719 884.757812 750.863281 886.109375 C 751.21875 886.136719 751.5625 886.085938 751.898438 885.964844 C 752.230469 885.839844 752.523438 885.648438 752.777344 885.394531 C 753.027344 885.140625 753.214844 884.847656 753.335938 884.511719 C 753.457031 884.175781 753.5 883.828125 753.472656 883.472656 C 751.699219 861.988281 764.417969 836.21875 778.378906 823.042969 C 797.230469 805.207031 820.515625 801.8125 846.054688 801.660156 C 870.707031 801.53125 908.054688 805.914062 937.421875 799.910156 C 951.882812 796.9375 964.296875 794.589844 974.667969 792.867188 C 998.148438 788.980469 1020.75 792.476562 1042.472656 803.355469 C 1078.832031 821.546875 1107.96875 853.472656 1112.910156 893.863281 C 1115.679688 916.617188 1111.203125 936.828125 1099.480469 954.496094 C 1075.765625 990.324219 1030.132812 996.960938 989.464844 987.359375 C 949.101562 977.855469 910.03125 956.140625 874.152344 934.074219 C 839.339844 912.636719 806.65625 901.4375 765.960938 897.992188 C 765.804688 897.980469 765.648438 897.984375 765.488281 898.007812 C 765.332031 898.027344 765.179688 898.066406 765.03125 898.125 C 764.882812 898.183594 764.746094 898.253906 764.613281 898.34375 C 764.480469 898.433594 764.359375 898.535156 764.253906 898.648438 C 764.144531 898.765625 764.050781 898.890625 763.96875 899.03125 C 763.890625 899.167969 763.828125 899.3125 763.78125 899.460938 C 763.730469 899.613281 763.703125 899.769531 763.691406 899.925781 C 763.679688 900.085938 763.683594 900.242188 763.707031 900.398438 C 765.988281 914.976562 770.71875 928.8125 777.898438 941.902344 C 795.144531 973.421875 818.191406 1000 847.042969 1021.640625 C 882.996094 1048.625 908.738281 1064.890625 931.011719 1094.054688 C 956.324219 1127.222656 964.230469 1172.121094 958.808594 1213.976562 C 957.035156 1227.726562 953.292969 1240.355469 947.582031 1251.859375 C 947.449219 1252.125 947.292969 1252.378906 947.109375 1252.617188 C 946.925781 1252.851562 946.722656 1253.070312 946.496094 1253.265625 C 946.265625 1253.460938 946.023438 1253.632812 945.761719 1253.777344 C 945.5 1253.925781 945.226562 1254.042969 944.941406 1254.136719 C 944.65625 1254.230469 944.363281 1254.292969 944.066406 1254.324219 C 943.765625 1254.359375 943.464844 1254.363281 943.167969 1254.335938 C 942.867188 1254.3125 942.574219 1254.253906 942.285156 1254.171875 C 941.996094 1254.085938 941.71875 1253.972656 941.449219 1253.835938 L 941.300781 1253.757812 C 940.742188 1253.46875 940.253906 1253.085938 939.839844 1252.609375 C 939.425781 1252.136719 939.109375 1251.601562 938.898438 1251.007812 C 938.683594 1250.414062 938.585938 1249.800781 938.601562 1249.171875 C 938.617188 1248.539062 938.75 1247.929688 938.992188 1247.347656 C 950.851562 1219.375 952.09375 1189.273438 947.761719 1160.136719 C 943.25 1129.898438 929.457031 1103.640625 906.382812 1081.359375 C 881.753906 1057.59375 850.917969 1037.933594 828.445312 1019.386719 C 794.796875 991.5625 758.5625 943.980469 753.648438 899.816406 C 753.597656 899.335938 753.460938 898.882812 753.25 898.449219 C 753.035156 898.019531 752.753906 897.636719 752.402344 897.300781 C 752.054688 896.96875 751.65625 896.703125 751.214844 896.507812 C 750.769531 896.3125 750.304688 896.199219 749.824219 896.167969 C 721.570312 894.445312 695.371094 892.746094 670.414062 896.902344 C 654.046875 899.605469 633.363281 904.046875 608.363281 910.230469 C 587.972656 915.265625 564.808594 918.523438 538.863281 920.011719 C 490.414062 922.796875 440.144531 912.6875 404.015625 880.027344 C 376.777344 855.398438 363.019531 817.417969 363.601562 781.261719 C 364.386719 735.453125 386.175781 689.464844 414.199219 653.433594 C 414.378906 653.203125 414.515625 652.953125 414.609375 652.675781 C 414.703125 652.402344 414.746094 652.117188 414.742188 651.828125 C 414.738281 651.539062 414.683594 651.257812 414.582031 650.984375 C 414.480469 650.710938 414.335938 650.464844 414.148438 650.242188 C 405.011719 639.328125 401.117188 626.414062 402.46875 611.5 C 403.558594 599.261719 407.738281 584.515625 412.628906 573.1875 C 439.640625 510.480469 497.789062 456.054688 566.605469 443.6875 C 610.921875 435.734375 657.265625 453.46875 693.75 479.414062 C 702.753906 485.832031 719.214844 498.492188 743.132812 517.394531 C 764.078125 533.984375 785.960938 548.492188 808.78125 560.925781 C 809.296875 561.203125 809.839844 561.386719 810.417969 561.46875 C 810.992188 561.550781 811.566406 561.53125 812.136719 561.40625 C 812.707031 561.285156 813.238281 561.066406 813.726562 560.75 C 814.21875 560.4375 814.640625 560.046875 814.992188 559.582031 C 852.542969 509.921875 914.972656 476.679688 978.445312 482.757812 C 1007.277344 485.546875 1038.796875 503.308594 1045.511719 534.195312 C 1055.015625 577.925781 1016.957031 600.933594 978.925781 606.835938 C 924.625 615.273438 865.945312 600.882812 816.867188 576.101562 C 816.589844 575.964844 816.300781 575.878906 815.992188 575.847656 C 815.683594 575.816406 815.382812 575.84375 815.085938 575.925781 C 814.789062 576.007812 814.515625 576.140625 814.269531 576.324219 C 814.019531 576.507812 813.8125 576.730469 813.648438 576.988281 C 804.40625 591.753906 796.191406 607.671875 788.996094 624.75 C 788.046875 626.980469 787.492188 628.671875 787.324219 629.820312 C 787.265625 630.195312 787.285156 630.570312 787.378906 630.941406 C 787.472656 631.308594 787.636719 631.644531 787.867188 631.949219 C 788.097656 632.253906 788.382812 632.5 788.714844 632.6875 C 789.046875 632.875 789.402344 632.992188 789.78125 633.035156 C 839.085938 638.761719 882.007812 653.535156 926.476562 676.160156 C 959.652344 693.070312 994.027344 714.445312 1029.601562 740.289062 C 1079.5 776.539062 1114.304688 801.894531 1134.015625 816.355469 C 1172.351562 844.453125 1217.582031 869.5625 1264.757812 854.109375 C 1295.644531 843.972656 1310.316406 808.425781 1313.382812 777.460938 C 1320.453125 705.984375 1298.027344 632.046875 1247.277344 580.816406 C 1243.003906 576.492188 1238.820312 572.960938 1234.734375 570.226562 C 1234.550781 570.097656 1234.347656 570.023438 1234.125 570.011719 C 1233.902344 569.996094 1233.691406 570.042969 1233.496094 570.144531 C 1233.296875 570.25 1233.140625 570.398438 1233.027344 570.589844 C 1232.914062 570.78125 1232.855469 570.988281 1232.859375 571.214844 C 1232.84375 587.277344 1228.882812 601.914062 1220.976562 615.125 C 1202.835938 645.476562 1167.460938 663.519531 1133.714844 645.476562 C 1097.402344 626.042969 1094.996094 579.980469 1121.777344 551.476562 C 1147.625 523.957031 1190.519531 529.429688 1220.746094 548.433594 C 1221.058594 548.625 1221.394531 548.726562 1221.757812 548.730469 C 1222.125 548.734375 1222.464844 548.644531 1222.777344 548.464844 C 1223.09375 548.28125 1223.339844 548.03125 1223.515625 547.710938 C 1223.695312 547.390625 1223.777344 547.050781 1223.761719 546.6875 C 1222.648438 521.332031 1216.945312 496.484375 1206.660156 472.144531 C 1170.910156 387.464844 1081.644531 340.765625 992.253906 343.226562 C 992.046875 343.230469 991.847656 343.261719 991.648438 343.316406 C 991.449219 343.371094 991.261719 343.445312 991.082031 343.546875 C 990.902344 343.644531 990.738281 343.765625 990.589844 343.90625 C 990.4375 344.042969 990.308594 344.199219 990.195312 344.371094 C 990.082031 344.542969 989.992188 344.722656 989.925781 344.914062 C 989.855469 345.105469 989.8125 345.304688 989.792969 345.507812 C 989.773438 345.710938 989.78125 345.910156 989.808594 346.113281 C 989.839844 346.3125 989.894531 346.507812 989.972656 346.695312 C 991.59375 350.648438 993.636719 355.351562 996.105469 360.808594 C 1000.109375 369.710938 1002.152344 379.601562 1002.234375 390.480469 C 1002.539062 425.320312 970.714844 455.800781 935.269531 451.214844 C 882.414062 444.371094 880.414062 384.855469 918.164062 358.023438 C 932.167969 348.089844 948.4375 341.25 966.964844 337.5 C 967.164062 337.460938 967.351562 337.398438 967.53125 337.3125 C 967.710938 337.226562 967.875 337.117188 968.027344 336.988281 C 968.179688 336.855469 968.308594 336.707031 968.421875 336.542969 C 968.535156 336.375 968.621094 336.199219 968.6875 336.007812 C 968.753906 335.816406 968.792969 335.621094 968.808594 335.421875 C 968.820312 335.21875 968.808594 335.019531 968.773438 334.824219 C 968.734375 334.625 968.671875 334.433594 968.585938 334.253906 C 968.5 334.070312 968.390625 333.902344 968.257812 333.75 C 933.242188 293.488281 890.726562 263.386719 835.867188 257.734375 C 787.8125 252.785156 741.191406 259.992188 696.003906 279.347656 C 695.648438 279.5 695.359375 279.730469 695.136719 280.046875 C 694.914062 280.363281 694.789062 280.714844 694.765625 281.101562 C 694.742188 281.488281 694.820312 281.855469 695.003906 282.203125 C 695.183594 282.546875 695.441406 282.820312 695.777344 283.023438 C 721.191406 298.125 735.886719 320.828125 729.628906 350.015625 C 726.132812 366.359375 713.96875 380.34375 697.675781 386.324219 C 648.015625 404.515625 598.125 345.554688 640.363281 303.015625 C 647.507812 295.800781 655.550781 289.195312 664.484375 283.199219 C 664.90625 282.914062 665.222656 282.542969 665.4375 282.082031 C 665.648438 281.621094 665.730469 281.136719 665.671875 280.632812 C 665.617188 280.128906 665.433594 279.671875 665.125 279.269531 C 664.816406 278.867188 664.425781 278.570312 663.953125 278.386719 C 607.046875 256.492188 549.882812 256.265625 492.46875 277.703125 C 447.570312 294.476562 403.078125 326.578125 372.0625 364.886719 C 371.828125 365.179688 371.6875 365.515625 371.636719 365.886719 C 371.589844 366.257812 371.636719 366.613281 371.789062 366.957031 C 371.9375 367.296875 372.164062 367.574219 372.46875 367.785156 C 372.773438 367.996094 373.113281 368.113281 373.484375 368.132812 C 380.359375 368.554688 386.691406 369.425781 392.484375 370.742188 C 416.277344 376.136719 439.359375 394.8125 439.816406 420.960938 C 440.222656 443.765625 421.09375 455.851562 400.238281 455.46875 C 387.402344 455.21875 376.347656 450.707031 367.070312 441.941406 C 349.742188 425.523438 344.621094 406.054688 351.71875 383.535156 C 351.769531 383.371094 351.800781 383.199219 351.808594 383.023438 C 351.816406 382.847656 351.800781 382.675781 351.761719 382.503906 C 351.726562 382.332031 351.667969 382.171875 351.585938 382.015625 C 351.503906 381.859375 351.40625 381.714844 351.289062 381.585938 C 351.171875 381.457031 351.039062 381.34375 350.890625 381.25 C 350.742188 381.15625 350.585938 381.082031 350.417969 381.027344 C 350.253906 380.976562 350.082031 380.945312 349.90625 380.933594 C 349.730469 380.925781 349.558594 380.941406 349.386719 380.976562 C 281.328125 395.371094 234.632812 453.292969 213.703125 516.484375 C 203.230469 548.105469 201.429688 580.351562 208.304688 613.222656 C 208.339844 613.378906 208.390625 613.527344 208.457031 613.671875 C 208.527344 613.816406 208.613281 613.949219 208.714844 614.070312 C 208.820312 614.195312 208.933594 614.300781 209.0625 614.394531 C 209.195312 614.488281 209.332031 614.566406 209.480469 614.625 C 209.628906 614.683594 209.78125 614.722656 209.941406 614.746094 C 210.097656 614.765625 210.257812 614.765625 210.414062 614.75 C 210.574219 614.730469 210.726562 614.691406 210.875 614.636719 C 211.027344 614.578125 211.164062 614.503906 211.296875 614.414062 C 216.210938 610.96875 221.078125 607.917969 225.890625 605.265625 C 246.566406 593.789062 276.871094 592.167969 297.164062 604.835938 C 326.175781 622.976562 335.347656 668.585938 303.449219 689.058594 C 276.035156 706.667969 236.582031 690.882812 220.214844 665.875 C 214.101562 656.515625 209.515625 647.621094 206.457031 639.195312 Z M 679.511719 286.492188 C 660.457031 295.667969 630.332031 318.316406 634.6875 342.261719 C 638.4375 362.886719 650.785156 375.160156 671.730469 379.078125 C 694.6875 383.386719 714.882812 368.6875 720.152344 346.746094 C 726.789062 319.179688 704.773438 296.855469 681.386719 286.46875 C 680.761719 286.179688 680.136719 286.191406 679.511719 286.492188 Z M 973.375 346.238281 C 948.292969 352.042969 915.074219 362.710938 905.546875 389.71875 C 894.070312 422.277344 916.949219 444.855469 948.824219 441.15625 C 972.769531 438.367188 991.820312 415.511719 991.949219 391.519531 C 992.035156 376.128906 987.726562 361.796875 979.027344 348.519531 C 978.730469 348.0625 978.371094 347.664062 977.949219 347.316406 C 977.527344 346.96875 977.066406 346.695312 976.558594 346.492188 C 976.054688 346.289062 975.53125 346.164062 974.988281 346.121094 C 974.445312 346.078125 973.90625 346.117188 973.375 346.238281 Z M 366.414062 378.824219 C 365.679688 378.878906 365.019531 379.125 364.425781 379.570312 C 363.835938 380.015625 363.410156 380.585938 363.144531 381.28125 C 356.539062 399.152344 357.933594 414.769531 367.324219 428.132812 C 376.144531 440.648438 392.207031 446.628906 407.082031 445.132812 C 420.914062 443.765625 430.390625 433.628906 429.328125 419.542969 C 426.996094 388.503906 392.664062 376.898438 366.414062 378.824219 Z M 823.53125 568.449219 C 871.011719 592.523438 925.84375 604.859375 978.949219 596.878906 C 1004.515625 593.027344 1039 575.75 1036.921875 545.039062 C 1034.136719 503.410156 989.644531 489.195312 954.828125 492.4375 C 900.285156 497.523438 856.300781 521.871094 822.871094 565.488281 C 822.695312 565.722656 822.574219 565.984375 822.511719 566.269531 C 822.449219 566.558594 822.453125 566.84375 822.515625 567.128906 C 822.578125 567.414062 822.699219 567.675781 822.875 567.90625 C 823.054688 568.136719 823.269531 568.316406 823.53125 568.449219 Z M 1223.6875 564.195312 C 1223.671875 563.445312 1223.484375 562.742188 1223.132812 562.085938 C 1222.78125 561.429688 1222.296875 560.890625 1221.683594 560.46875 C 1194.878906 541.695312 1152.5625 532.878906 1128.339844 558.976562 C 1118.171875 569.921875 1113.230469 582.546875 1113.519531 596.855469 C 1114.203125 631.644531 1152.4375 653.738281 1183.78125 637.140625 C 1210.789062 622.851562 1224.347656 594.246094 1223.6875 564.195312 Z M 429.402344 650.113281 C 432.621094 656.246094 453.09375 660.503906 457.222656 660.882812 C 484.890625 663.367188 516.5625 655.15625 539.417969 638.179688 C 551.9375 628.90625 563.972656 611.703125 559.257812 596.222656 C 555.683594 584.589844 545.804688 578.738281 533.769531 577.292969 C 515.152344 575.082031 497.839844 580.03125 481.828125 592.140625 C 461.910156 607.191406 445.085938 627.488281 429.554688 648.1875 C 429.347656 648.464844 429.226562 648.777344 429.199219 649.125 C 429.171875 649.472656 429.242188 649.804688 429.402344 650.113281 Z M 213.070312 629.464844 C 217.039062 642.402344 223.296875 654.296875 231.84375 665.140625 C 239.617188 674.96875 250.308594 681.441406 263.921875 684.546875 C 278.316406 687.84375 296.328125 686.421875 305.628906 674.210938 C 312.453125 665.257812 314.757812 655.207031 312.546875 644.058594 C 306.488281 613.398438 278.898438 601.542969 249.835938 607.320312 C 237.691406 609.734375 225.984375 615.375 214.71875 624.246094 C 214.332031 624.546875 214 624.898438 213.722656 625.300781 C 213.445312 625.703125 213.234375 626.136719 213.085938 626.605469 C 212.9375 627.070312 212.863281 627.546875 212.863281 628.035156 C 212.859375 628.519531 212.929688 629 213.070312 629.464844 Z M 771.207031 641.070312 C 716.628906 637.671875 664.796875 647.503906 615.710938 670.5625 C 588.320312 683.433594 557.890625 701.777344 541.34375 725.292969 C 515.144531 762.488281 541.117188 810.375 579.730469 824.03125 C 597.550781 830.347656 615.921875 831.871094 634.839844 828.59375 C 684.019531 820.078125 731.277344 794.335938 750 746.117188 C 754.628906 734.210938 757.703125 723.535156 759.222656 714.09375 C 764.289062 682.699219 766.191406 665.089844 772.574219 643.046875 C 772.640625 642.820312 772.65625 642.59375 772.617188 642.363281 C 772.582031 642.132812 772.496094 641.921875 772.363281 641.730469 C 772.230469 641.539062 772.0625 641.382812 771.859375 641.269531 C 771.65625 641.152344 771.441406 641.085938 771.207031 641.070312 Z M 762.644531 885.070312 C 762.648438 885.414062 762.710938 885.746094 762.832031 886.066406 C 762.957031 886.386719 763.128906 886.671875 763.355469 886.925781 C 763.582031 887.179688 763.847656 887.386719 764.148438 887.542969 C 764.449219 887.699219 764.765625 887.792969 765.101562 887.832031 C 789.5 890.667969 813.066406 894.699219 835.566406 903.363281 C 847.152344 907.824219 861.054688 914.925781 877.269531 924.671875 C 924.273438 952.976562 974.414062 983.761719 1030.96875 980.871094 C 1068.011719 978.972656 1097.023438 955.609375 1102.34375 918.035156 C 1109.691406 866.144531 1071.992188 824.917969 1026.308594 806.902344 C 1015.460938 802.613281 1004.566406 800.78125 993.621094 801.40625 C 978.890625 802.25 969.136719 803.273438 964.355469 804.472656 C 937.363281 811.226562 910.175781 813.957031 882.792969 812.65625 C 861.738281 811.667969 845.066406 811.3125 826.519531 813.085938 C 800.371094 815.570312 781.882812 827.816406 771.054688 849.824219 C 765.363281 861.394531 762.558594 873.144531 762.644531 885.070312 Z M 762.644531 885.070312 " fill-opacity="1" fill-rule="nonzero"/></g><path fill="#ffffff" d="M 753.273438 1066.640625 C 731.953125 1066.640625 714.609375 1083.984375 714.609375 1105.304688 C 714.609375 1126.621094 731.953125 1143.964844 753.273438 1143.964844 C 774.589844 1143.964844 791.9375 1126.621094 791.9375 1105.304688 C 791.9375 1083.984375 774.589844 1066.640625 753.273438 1066.640625 Z M 692.902344 1144.5625 C 673.425781 1111.265625 684.671875 1068.328125 717.96875 1048.855469 C 728.6875 1042.585938 740.878906 1039.273438 753.222656 1039.273438 C 765.230469 1039.273438 777.113281 1042.378906 787.589844 1048.253906 C 798.375 1054.308594 807.394531 1063.183594 813.675781 1073.921875 C 826.386719 1095.644531 826.382812 1122.714844 813.671875 1144.566406 L 753.292969 1247.800781 L 692.902344 1144.5625 " fill-opacity="1" fill-rule="nonzero"/><g clip-path="url(#5344ae3963)"><path fill="#000000" d="M 753.273438 1140.660156 C 733.746094 1140.660156 717.917969 1124.832031 717.917969 1105.304688 C 717.917969 1085.773438 733.746094 1069.945312 753.273438 1069.945312 C 772.800781 1069.945312 788.632812 1085.773438 788.632812 1105.304688 C 788.632812 1124.832031 772.800781 1140.660156 753.273438 1140.660156 Z M 753.222656 1035.96875 C 740.65625 1035.96875 727.929688 1039.199219 716.300781 1046.003906 C 681.375 1066.429688 669.621094 1111.304688 690.050781 1146.230469 L 753.289062 1254.347656 L 816.527344 1146.230469 C 829.375 1124.144531 830.347656 1095.878906 816.527344 1072.253906 C 802.902344 1048.953125 778.394531 1035.96875 753.222656 1035.96875 Z M 753.273438 1147.269531 C 776.414062 1147.269531 795.242188 1128.445312 795.242188 1105.304688 C 795.242188 1082.164062 776.414062 1063.335938 753.273438 1063.335938 C 730.132812 1063.335938 711.308594 1082.164062 711.308594 1105.304688 C 711.308594 1128.445312 730.132812 1147.269531 753.273438 1147.269531 M 753.222656 1042.574219 C 764.664062 1042.574219 775.992188 1045.535156 785.972656 1051.136719 C 796.246094 1056.902344 804.839844 1065.355469 810.824219 1075.585938 C 816.890625 1085.957031 820.03125 1097.773438 819.921875 1109.753906 C 819.808594 1121.394531 816.660156 1132.859375 810.824219 1142.894531 L 753.289062 1241.257812 L 695.757812 1142.894531 C 686.765625 1127.527344 684.300781 1109.578125 688.8125 1092.351562 C 693.320312 1075.132812 704.269531 1060.695312 719.636719 1051.707031 C 729.851562 1045.734375 741.464844 1042.574219 753.222656 1042.574219 " fill-opacity="1" fill-rule="nonzero"/></g></svg>